<?xml version="1.0" encoding="UTF-8" standalone="no"?>
<!-- Created with Inkscape (http://www.inkscape.org/) -->

<svg
   width="128mm"
   height="128mm"
   viewBox="0 0 128 128"
   version="1.1"
   id="svg1"
   inkscape:version="1.4.2 (f4327f4, 2025-05-13)"
   sodipodi:docname="copyfu.svg"
   inkscape:export-filename="copyfu.png"
   inkscape:export-xdpi="96"
   inkscape:export-ydpi="96"
   xmlns:inkscape="http://www.inkscape.org/namespaces/inkscape"
   xmlns:sodipodi="http://sodipodi.sourceforge.net/DTD/sodipodi-0.dtd"
   xmlns="http://www.w3.org/2000/svg"
   xmlns:svg="http://www.w3.org/2000/svg">
  <sodipodi:namedview
     id="namedview1"
     pagecolor="#ffffff"
     bordercolor="#000000"
     borderopacity="0.25"
     inkscape:showpageshadow="2"
     inkscape:pageopacity="0.0"
     inkscape:pagecheckerboard="0"
     inkscape:deskcolor="#d1d1d1"
     inkscape:document-units="mm"
     inkscape:zoom="1.05"
     inkscape:cx="250"
     inkscape:cy="350.47619"
     inkscape:window-width="1801"
     inkscape:window-height="1479"
     inkscape:window-x="719"
     inkscape:window-y="315"
     inkscape:window-maximized="0"
     inkscape:current-layer="layer1" />
  <defs
     id="defs1">
    <inkscape:path-effect
       effect="fillet_chamfer"
       id="path-effect1"
       is_visible="true"
       lpeversion="1"
       nodesatellites_param="F,0,0,1,0,13.229166,0,1 @ F,0,0,1,0,13.229166,0,1 @ F,0,0,1,0,13.229166,0,1 @ F,0,0,1,0,13.229166,0,1"
       radius="50"
       unit="px"
       method="auto"
       mode="F"
       chamfer_steps="1"
       flexible="false"
       use_knot_distance="true"
       apply_no_radius="true"
       apply_with_radius="true"
       only_selected="false"
       hide_knots="false" />
    <inkscape:path-effect
       effect="fillet_chamfer"
       id="path-effect5"
       is_visible="true"
       lpeversion="1"
       nodesatellites_param="F,0,0,1,0,7.9374998,0,1 @ F,0,0,1,0,7.9374998,0,1 @ F,0,0,1,0,7.9374998,0,1 @ F,0,0,1,0,7.9374998,0,1"
       radius="30"
       unit="px"
       method="auto"
       mode="F"
       chamfer_steps="1"
       flexible="false"
       use_knot_distance="true"
       apply_no_radius="true"
       apply_with_radius="true"
       only_selected="false"
       hide_knots="false" />
    <inkscape:path-effect
       effect="fillet_chamfer"
       id="path-effect4"
       is_visible="true"
       lpeversion="1"
       nodesatellites_param="F,0,0,1,0,7.9374998,0,1 @ F,0,0,1,0,7.9374998,0,1 @ F,0,0,1,0,7.9374998,0,1 @ F,0,0,1,0,7.9374998,0,1"
       radius="30"
       unit="px"
       method="auto"
       mode="F"
       chamfer_steps="1"
       flexible="false"
       use_knot_distance="true"
       apply_no_radius="true"
       apply_with_radius="true"
       only_selected="false"
       hide_knots="false" />
  </defs>
  <g
     inkscape:label="Layer 1"
     inkscape:groupmode="layer"
     id="layer1"
     transform="translate(-20.290909,-56.618179)">
    <path
       style="display:inline;fill:#0e83cd;fill-opacity:1;stroke:none;stroke-width:3;stroke-dasharray:none;stroke-opacity:1"
       id="rect1"
       width="128"
       height="128"
       x="20.290909"
       y="56.618179"
       inkscape:path-effect="#path-effect1"
       sodipodi:type="rect"
       d="m 33.520075,56.618179 101.541665,0 a 13.229166,13.229166 45 0 1 13.22917,13.229166 V 171.38901 a 13.229166,13.229166 135 0 1 -13.22917,13.22917 H 33.520075 A 13.229166,13.229166 45 0 1 20.290909,171.38901 l 0,-101.541665 A 13.229166,13.229166 135 0 1 33.520075,56.618179 Z" />
  </g>
  <g
     inkscape:groupmode="layer"
     id="layer2"
     inkscape:label="Layer 2">
    <path
       style="fill:#808080;fill-opacity:0;stroke:#ffffff;stroke-width:5;stroke-dasharray:none;stroke-opacity:1"
       id="rect2"
       width="36"
       height="36"
       x="49.090912"
       y="27.981815"
       inkscape:path-effect="#path-effect4"
       sodipodi:type="rect"
       d="m 57.028412,27.981815 h 20.125 a 7.9374998,7.9374998 45 0 1 7.9375,7.9375 v 20.125001 a 7.9374998,7.9374998 135 0 1 -7.9375,7.937499 h -20.125 a 7.9374998,7.9374998 45 0 1 -7.9375,-7.937499 V 35.919315 a 7.9374998,7.9374998 135 0 1 7.9375,-7.9375 z"
       transform="matrix(1.4323679,0,0,1.4323679,-61.683997,-31.390435)" />
    <path
       style="fill:#808080;fill-opacity:0;stroke:#ffffff;stroke-width:5;stroke-dasharray:none;stroke-opacity:1"
       id="rect3"
       width="48"
       height="48"
       x="71.509094"
       y="49.745453"
       inkscape:path-effect="#path-effect5"
       sodipodi:type="rect"
       d="m 79.446594,49.745453 h 32.124996 a 7.9374998,7.9374998 45 0 1 7.9375,7.9375 v 32.125 a 7.9374998,7.9374998 135 0 1 -7.9375,7.9375 H 79.446594 a 7.9374998,7.9374998 45 0 1 -7.9375,-7.9375 v -32.125 a 7.9374998,7.9374998 135 0 1 7.9375,-7.9375 z"
       transform="matrix(1.6789308,0,0,1.6789308,-83.629483,-46.363894)" />
  </g>
  <g
     inkscape:groupmode="layer"
     id="layer3"
     inkscape:label="Layer 3">
    <path
       style="font-style:oblique;font-weight:900;font-size:25.4px;font-family:'Iosevka Term';-inkscape-font-specification:'Iosevka Term Heavy Oblique';fill:#0ecdc3;stroke-width:10.0226;fill-opacity:1"
       d="m 74.088236,108.71347 q -1.586854,0 -3.173708,-0.24638 -1.533956,-0.1848 -3.015018,-0.73916 -1.42817,-0.55438 -2.750546,-1.47832 -1.322376,-0.86233 -2.221593,-2.27904 -0.899219,-1.35512 -1.269482,-3.14141 -0.317372,-1.786293 -0.0529,-3.634166 0.15868,-0.985548 0.370267,-1.909485 0.264475,-0.985528 0.581843,-1.847883 0.317372,-0.923937 0.740533,-1.786281 0.476055,-0.923948 0.952112,-1.724691 0.476054,-0.862355 0.952112,-1.724689 0.476056,-0.862356 0.581846,-1.847884 0.105782,-0.739161 -0.0529,-1.478313 -0.15868,-0.73915 -0.581844,-1.293517 -0.370267,-0.554365 -0.952113,-0.862344 -0.52895,-0.369582 -1.163689,-0.554367 -0.581848,-0.184785 -1.216588,-0.246387 -0.634742,-0.06167 -1.269482,-0.06167 l 0.15868,-1.724689 0.740532,-5.297263 q 0.687635,0 1.375271,-0.06156 0.687636,-0.06156 1.322378,-0.246388 0.687635,-0.184785 1.322378,-0.492764 0.687634,-0.369581 1.216586,-0.923946 0.581846,-0.554367 0.952111,-1.293518 0.370264,-0.739151 0.476055,-1.478302 0.105784,-0.923947 0,-1.847885 -0.105786,-0.923945 -0.264477,-1.786291 -0.158681,-0.862344 -0.423162,-1.72469 -0.211579,-0.862345 -0.370266,-1.724691 -0.15868,-0.923942 -0.21158,-1.847883 0,-0.923942 0.158681,-1.909479 0.264478,-1.847884 1.057903,-3.634173 0.846322,-1.786285 2.168699,-3.141399 1.322377,-1.416711 2.856333,-2.279057 1.533959,-0.923942 3.120812,-1.478308 1.639747,-0.554363 3.279495,-0.739152 1.692643,-0.246385 3.279495,-0.246385 l -1.005005,7.021958 q -0.740533,0 -1.481064,0.123191 -0.740532,0.0616 -1.481064,0.246385 -0.740528,0.184788 -1.428164,0.492767 -0.687639,0.307982 -1.375275,0.80075 -0.63474,0.492769 -1.110795,1.293519 -0.476058,0.739153 -0.581847,1.539904 -0.15868,0.985537 -0.0529,1.909479 0.105784,0.862346 0.264475,1.786288 0.15868,0.862344 0.370265,1.72469 0.264478,0.862346 0.370267,1.786286 0.158681,0.862346 0.211581,1.786289 0.0529,0.92394 -0.0529,1.847887 -0.211577,1.293517 -0.74053,2.587035 -0.476057,1.231914 -1.26948,2.279055 -0.793431,1.04713 -1.851329,1.847883 -1.005008,0.739151 -2.062909,1.293518 0.952109,0.554365 1.692641,1.355108 0.793426,0.739162 1.322377,1.786292 0.52895,1.047141 0.634742,2.340647 0.158681,1.231926 -0.0529,2.525443 -0.105783,0.923948 -0.370264,1.909486 -0.211581,0.923937 -0.528953,1.847883 -0.317368,0.923937 -0.793425,1.786281 -0.423162,0.862345 -0.899215,1.72469 -0.476055,0.862355 -0.952111,1.724689 -0.476057,0.862357 -0.63474,1.847884 -0.105783,0.800754 0.15868,1.601507 0.264475,0.739153 0.74053,1.231916 0.528951,0.49277 1.16369,0.80076 0.634743,0.30798 1.322377,0.49277 0.687638,0.18479 1.375274,0.24639 0.687636,0.12318 1.428167,0.12318 z m 26.447534,0 q -1.586847,0 -3.173699,-0.24638 -1.533957,-0.1848 -3.01502,-0.73916 -1.428166,-0.55438 -2.750545,-1.47832 -1.322376,-0.86233 -2.221592,-2.27904 -0.899215,-1.35512 -1.269482,-3.14141 -0.317372,-1.786293 -0.0529,-3.634166 0.158681,-0.985548 0.370266,-1.909485 0.264477,-0.985528 0.581847,-1.847883 0.31737,-0.923937 0.740533,-1.786281 0.476053,-0.923948 0.95211,-1.724691 0.476056,-0.862355 0.952111,-1.724689 0.476055,-0.862356 0.581847,-1.847884 0.105782,-0.739161 -0.0529,-1.478313 -0.158679,-0.73915 -0.581847,-1.293517 -0.370265,-0.554365 -0.95211,-0.862344 -0.52895,-0.369582 -1.163691,-0.554367 -0.581847,-0.184785 -1.216587,-0.246387 -0.634743,-0.06167 -1.269483,-0.06167 l 0.158681,-1.724689 0.740532,-5.297274 q 0.687634,0 1.375271,-0.06156 0.687632,-0.06156 1.322378,-0.246388 0.687634,-0.184785 1.322374,-0.492764 0.687638,-0.36958 1.21659,-0.923947 0.581845,-0.554365 0.952108,-1.293517 0.370267,-0.739151 0.476058,-1.478302 0.105783,-0.923947 0,-1.847886 -0.105784,-0.923942 -0.264475,-1.786287 -0.15868,-0.862346 -0.423161,-1.724691 -0.211579,-0.862346 -0.370268,-1.724691 -0.15868,-0.923942 -0.21158,-1.847884 0,-0.923941 0.15868,-1.909479 0.264476,-1.847884 1.057903,-3.634171 0.846322,-1.786288 2.168699,-3.141402 1.322375,-1.416711 2.856335,-2.279055 1.533947,-0.923941 3.120817,-1.478307 1.63974,-0.554366 3.27949,-0.739154 1.69265,-0.246383 3.27949,-0.246383 l -1.005,7.021956 q -0.74054,0 -1.48106,0.123192 -0.74054,0.0616 -1.48106,0.246385 -0.74054,0.184788 -1.42817,0.492768 -0.68764,0.307981 -1.37527,0.800749 -0.63475,0.492769 -1.1108,1.293518 -0.47606,0.739155 -0.58185,1.539904 -0.15868,0.985538 -0.0529,1.909479 0.10578,0.862346 0.26448,1.786287 0.15867,0.862346 0.37027,1.724691 0.26447,0.862345 0.37026,1.786288 0.15868,0.862345 0.21159,1.786287 0.0529,0.923939 -0.0529,1.847886 -0.21158,1.293517 -0.74054,2.587034 -0.47606,1.231926 -1.26948,2.279056 -0.793428,1.047131 -1.85133,1.847884 -1.005005,0.739151 -2.062906,1.293517 0.95211,0.554366 1.692643,1.355119 0.793426,0.739152 1.322377,1.786282 0.52895,1.047141 0.634742,2.340646 0.15868,1.231927 -0.0529,2.525444 -0.105784,0.923947 -0.370269,1.909486 -0.211578,0.923947 -0.528949,1.847883 -0.31737,0.923936 -0.793426,1.786281 -0.423163,0.862355 -0.899217,1.724689 -0.476056,0.862356 -0.952112,1.72469 -0.476055,0.862356 -0.63474,1.847883 -0.105783,0.800753 0.15868,1.601507 0.264474,0.739153 0.740532,1.231917 0.52895,0.49277 1.163692,0.80076 0.63474,0.30798 1.322378,0.49276 0.687635,0.1848 1.375265,0.24639 0.68764,0.12319 1.42818,0.12319 z"
       id="text5"
       aria-label="{{" />
  </g>
</svg>
